<svg width="50" height="40" viewBox="0 0 50 40" fill="none" xmlns="http://www.w3.org/2000/svg">
<path d="M49.445 9.20181C48.7181 8.48718 47.5352 8.4995 46.8206 9.22645C45.6378 10.4216 42.3603 13.2555 37.4688 13.5758C33.218 13.8592 29.9036 12.1096 27.9815 10.7296C28.5113 10.3107 29.0164 9.87948 29.4846 9.43591C30.803 8.17915 32.3185 6.49115 32.1953 4.50743C32.183 4.24869 32.146 4.00226 32.1091 3.76816C31.8257 2.19104 30.9386 0.995888 29.6079 0.40447C29.2998 0.268936 28.9672 0.170367 28.6345 0.0964395C27.6118 -0.113021 26.5522 0.0225123 25.6528 0.466076C25.4063 0.589288 25.2092 0.7125 25.0367 0.848033C24.8642 0.7125 24.6671 0.589288 24.4206 0.466076C23.5212 0.0225123 22.4616 -0.113021 21.4389 0.0964395C21.1062 0.170367 20.7736 0.268936 20.4655 0.40447C19.1348 0.983566 18.2477 2.17872 17.9643 3.76816C17.915 4.00226 17.8904 4.26101 17.8781 4.50743C17.7549 6.47882 19.258 8.17915 20.5887 9.43591C21.0569 9.87948 21.5498 10.3107 22.0796 10.7296C20.3423 12.011 17.7795 13.3541 14.4774 13.5758C8.44003 13.9824 4.32474 10.3354 3.20351 9.21413C2.48888 8.48718 1.30605 8.48718 0.579097 9.20181C0.197139 9.5468 0 10.015 0 10.5079C0 11.0007 0.184818 11.4689 0.542133 11.8262C1.82354 13.12 6.54256 17.3215 13.541 17.3215C13.9353 17.3215 14.3296 17.3092 14.7115 17.2845C13.5903 20.7837 13.233 24.7142 13.7135 28.4968C14.0708 31.3061 15.0442 33.7703 16.5351 35.6554C18.2847 37.8609 20.6996 39.1547 23.5089 39.3888C23.7676 39.4134 24.1865 39.4381 24.704 39.4381C26.7617 39.4381 30.5812 39.0191 32.9839 36.1853C35.1031 33.684 34.8321 30.2218 34.6719 28.1518C34.6349 27.6713 34.5979 27.1785 34.5487 26.6979C34.2776 23.4328 34.0189 20.3279 34.5856 17.2229C35.2387 17.2968 35.8917 17.3338 36.5324 17.3338C36.9267 17.3338 37.3209 17.3215 37.7029 17.2968C43.8635 16.8902 47.9788 13.3417 49.4696 11.8385C49.8146 11.4812 50.0118 11.013 49.9995 10.5202C49.9995 10.015 49.8023 9.5468 49.445 9.20181ZM30.2239 33.8442C28.77 35.5569 25.9485 35.9758 23.8046 35.791C18.605 35.3474 17.5084 29.7413 17.2867 28.0409C16.7938 24.0858 17.3483 19.8843 18.8391 16.5329C18.8514 16.5206 18.8514 16.5083 18.8638 16.4836C21.5375 15.6335 23.6198 14.2658 25.0121 13.1323C26.392 14.2412 28.4373 15.5719 31.0618 16.4344C30.3718 20.0445 30.6552 23.4205 30.9509 26.9813V26.9936C30.9878 27.4618 31.0248 27.93 31.0618 28.4106C31.2343 30.4682 31.2959 32.5875 30.2239 33.8442Z" fill="#002D40"/>
<path d="M25.2957 19.108C25.4436 18.8246 25.4682 18.5043 25.3697 18.1962C25.2711 17.8882 25.0616 17.6418 24.7783 17.4939C24.1868 17.1982 23.4599 17.42 23.1642 18.0114C23.0286 18.2825 19.7635 24.7142 23.1519 31.5278C23.3613 31.9344 23.7679 32.1931 24.2361 32.1931C24.4209 32.1931 24.6058 32.1562 24.7659 32.0699C25.0493 31.9221 25.2711 31.688 25.3697 31.3799C25.4682 31.0719 25.4559 30.7516 25.3081 30.4682C24.1375 28.1148 23.7679 25.5027 24.2238 22.7058C24.5688 20.5496 25.2834 19.1203 25.2957 19.108Z" fill="#002D40"/>
</svg>
